<svg width="85" height="59" viewBox="0 0 85 59" fill="none" xmlns="http://www.w3.org/2000/svg">
<path d="M83.8936 23.9867L73.8936 6.03387C73.1936 4.78859 71.6936 4.37349 70.4936 5.09991C67.7936 6.65651 64.6936 6.55274 63.1936 5.61878C53.8936 -1.95669 44.7936 1.67538 42.0936 3.12821C39.7936 1.88293 32.8936 -1.33405 26.8936 1.9867C22.2936 4.47727 17.2936 3.02444 15.3936 2.19425C14.2936 1.77915 13.0936 2.09048 12.4936 3.12821L0.493636 20.1471C-0.306364 21.1848 -0.106364 22.7414 0.893636 23.5716L13.7936 35.6093C12.8936 36.9584 12.1936 38.3075 12.1936 39.3452C12.1936 42.2509 14.4936 44.6376 17.2936 44.6376C17.6936 44.6376 18.0936 44.5339 18.5936 44.3263C18.4936 44.6376 18.3936 44.949 18.3936 45.1565C18.3936 48.0622 20.6936 50.449 23.4936 50.449C23.8936 50.449 24.2936 50.3452 24.7936 50.0339C24.7936 52.9395 27.0936 55.3263 29.8936 55.3263C30.2936 55.3263 30.8936 55.1188 31.4936 54.7037C31.9936 56.9867 33.8936 58.6471 36.1936 58.6471C37.3936 58.6471 38.8936 57.5056 40.0936 56.0527C42.2936 57.5056 44.1936 58.232 45.8936 58.232C46.3936 58.232 46.9936 58.1282 47.3936 58.0244C49.3936 57.4018 50.1936 55.8452 50.4936 55.2225C51.6936 56.0527 52.8936 56.5716 54.0936 56.5716C55.1936 56.5716 56.2936 56.1565 57.2936 55.4301C58.2936 54.5999 58.9936 53.4584 59.1936 52.2131C60.2936 52.9395 61.4936 53.3546 62.6936 53.3546C63.7936 53.3546 64.8936 52.9395 65.8936 52.2131C67.1936 51.1754 67.8936 49.6188 67.8936 47.9584C68.1936 48.0622 68.4936 48.0622 68.7936 48.0622C69.8936 48.0622 70.9936 47.6471 71.9936 46.9207C73.1936 45.9867 73.9936 44.6376 74.1936 43.081C74.3936 41.5244 73.9936 39.9678 73.0936 38.7226L70.9936 36.5433L83.0936 27.2037C84.1936 26.581 84.4936 25.1282 83.8936 23.9867ZM15.1936 39.2414C15.2936 37.8924 18.9936 33.7414 20.2936 33.6376C21.4936 33.6376 22.3936 34.5716 22.3936 35.8169C22.2936 37.1659 18.5936 41.3169 17.2936 41.4207C16.0936 41.4207 15.1936 40.4867 15.1936 39.2414ZM23.4936 47.232C22.3936 47.232 21.4936 46.1942 21.4936 45.1565C21.7936 43.3924 27.5936 36.7509 29.2936 36.232C30.3936 36.232 31.2936 37.1659 31.2936 38.4112C30.8936 40.0716 25.0936 46.7131 23.4936 47.232ZM29.8936 52.2131C28.7936 52.2131 27.8936 51.1754 27.7936 50.1376C28.0936 48.3735 34.2936 41.6282 35.9936 41.0056C37.0936 41.0056 37.9936 41.9395 37.9936 43.1848C37.6936 44.949 31.5936 51.6942 29.8936 52.2131ZM36.2936 55.5339C35.2936 55.5339 34.4936 54.7037 34.4936 53.6659C34.5936 52.4207 37.8936 48.7886 38.9936 48.581C39.4936 48.581 40.1936 48.581 40.1936 50.1376C40.1936 51.3829 37.2936 55.2225 36.2936 55.5339ZM71.2936 42.7697C71.1936 43.4961 70.7936 44.1188 70.2936 44.5339C68.8936 45.5716 67.4936 44.7414 66.7936 44.1188C66.7936 44.1188 66.7936 44.1188 66.7936 44.015C66.6936 43.9112 66.5936 43.9112 66.5936 43.8075L55.2936 32.2886C54.6936 31.6659 53.7936 31.6659 53.1936 32.2886C52.5936 32.9112 52.5936 33.8452 53.1936 34.4678L64.3936 46.0905L64.4936 46.1942C65.1936 47.3358 65.2936 49.0999 64.1936 49.8263C62.5936 51.0716 60.9936 49.7226 60.3936 49.0999L51.0936 39.449C50.4936 38.8263 49.5936 38.8263 48.9936 39.449C48.3936 40.0716 48.3936 41.0056 48.9936 41.6282L56.0936 48.9961C56.9936 50.2414 56.7936 52.2131 55.6936 53.0433C54.0936 54.2886 52.4936 52.9395 51.8936 52.3169L48.1936 48.4773C47.5936 47.8546 46.6936 47.8546 46.0936 48.4773C45.4936 49.0999 45.4936 50.0339 46.0936 50.6565L47.8936 52.5244C48.0936 52.732 48.0936 53.5622 47.8936 53.9773C47.8936 53.9773 47.5936 54.8075 46.5936 55.1188C45.8936 55.3263 44.4936 55.3263 41.8936 53.5622C42.6936 52.2131 43.1936 50.9678 43.1936 50.1376C43.1936 47.7509 42.0936 46.0905 40.1936 45.5716C40.6936 44.6376 41.0936 43.8075 41.0936 43.1848C41.0936 40.2792 38.7936 37.8924 35.9936 37.8924C35.4936 37.8924 34.8936 38.0999 34.1936 38.6188C34.1936 38.515 34.1936 38.515 34.1936 38.4112C34.1936 35.5056 31.8936 33.1188 29.0936 33.1188C28.1936 33.1188 26.7936 34.0527 25.2936 35.298C25.0936 32.5999 22.8936 30.5244 20.2936 30.5244C19.0936 30.5244 17.2936 31.6659 15.7936 33.2225L3.19364 21.4961L14.6936 5.09991C17.1936 6.03387 22.8936 7.59048 28.2936 4.58104C32.2936 2.4018 37.1936 4.06217 39.6936 5.30746C36.4936 9.25085 29.1936 19.4207 30.8936 25.8546C31.2936 27.4112 32.4936 28.5527 33.9936 28.9678C35.4936 29.2792 37.8936 29.1754 40.2936 26.6848C42.9936 23.8829 46.6936 19.8358 48.4936 17.7603L70.7936 40.9018C71.1936 41.4207 71.3936 42.0433 71.2936 42.7697ZM68.9936 34.4678L49.9936 14.7509C49.5936 14.3358 49.0936 14.1282 48.4936 14.1282C47.9936 14.1282 47.3936 14.3358 47.0936 14.7509C45.7936 16.2037 41.2936 21.2886 38.2936 24.4018C37.0936 25.6471 35.8936 26.1659 34.6936 25.8546C34.2936 25.7509 33.8936 25.4395 33.7936 24.9207C32.3936 19.9395 39.8936 9.76972 43.0936 6.03387C44.3936 5.30746 52.7936 0.948966 61.4936 8.10934L61.5936 8.21312C64.0936 9.97727 68.1936 9.87349 71.5936 8.10934L80.9936 25.1282L68.9936 34.4678Z" fill="#E3AD24"/>
</svg>
