<svg width="70" height="73" viewBox="0 0 70 73" fill="none" xmlns="http://www.w3.org/2000/svg">
<path fill-rule="evenodd" clip-rule="evenodd" d="M35 68.1014C43.1223 68.1014 50.9118 64.7531 56.6551 58.7931C62.3984 52.833 65.625 44.7495 65.625 36.3208C65.625 27.892 62.3984 19.8085 56.6551 13.8484C50.9118 7.8884 43.1223 4.54009 35 4.54009C26.8777 4.54009 19.0882 7.8884 13.3449 13.8484C7.60155 19.8085 4.375 27.892 4.375 36.3208C4.375 44.7495 7.60155 52.833 13.3449 58.7931C19.0882 64.7531 26.8777 68.1014 35 68.1014ZM70 36.3208C70 45.9536 66.3125 55.1919 59.7487 62.0034C53.185 68.8149 44.2826 72.6415 35 72.6415C25.7174 72.6415 16.815 68.8149 10.2513 62.0034C3.68749 55.1919 0 45.9536 0 36.3208C0 26.6879 3.68749 17.4496 10.2513 10.6381C16.815 3.82664 25.7174 0 35 0C44.2826 0 53.185 3.82664 59.7487 10.6381C66.3125 17.4496 70 26.6879 70 36.3208Z" fill="#E3AD24"/>
<path fill-rule="evenodd" clip-rule="evenodd" d="M32.8125 13.6203C33.3927 13.6203 33.9491 13.8595 34.3593 14.2852C34.7695 14.7109 35 15.2883 35 15.8903V39.5442L49.21 47.9707C49.6991 48.2768 50.0534 48.7694 50.1971 49.3431C50.3409 49.9167 50.2627 50.526 49.9793 51.0407C49.6959 51.5553 49.2298 51.9345 48.6806 52.0972C48.1313 52.26 47.5425 52.1933 47.04 51.9115L31.7275 42.8313C31.3927 42.6328 31.1144 42.346 30.9208 42C30.7272 41.654 30.6251 41.261 30.625 40.8609V15.8903C30.625 15.2883 30.8555 14.7109 31.2657 14.2852C31.6759 13.8595 32.2323 13.6203 32.8125 13.6203Z" fill="#E3AD24"/>
</svg>
