<svg width="298" height="197" viewBox="0 0 298 197" fill="none" xmlns="http://www.w3.org/2000/svg">
<path d="M67.9065 186.397V179.329L20.275 178.687V176.116L61.7917 176.759L66.6192 173.225L23.4934 171.618L15.7694 176.116V182.221L59.217 185.755L64.0445 189.289L67.9065 186.397Z" fill="#E3AD24" fill-opacity="0.8"/>
<path d="M97.5152 171.618C98.4807 176.116 98.1588 184.148 96.8715 188.325H118.756C122.296 183.827 122.296 176.116 118.756 171.618H97.5152Z" fill="#E3AD24" fill-opacity="0.8"/>
<path d="M6.43677 138.847V118.285H9.01147V138.847H6.43677ZM41.8385 118.285V78.1237H47.6315C51.4936 90.3326 54.7119 112.823 54.0682 125.353C51.1717 123.425 45.3787 119.891 41.8385 118.285ZM28.6433 138.847V118.285H31.218V138.847H28.6433ZM17.3791 138.847V118.285H19.9538V138.847H17.3791ZM55.3556 78.1237H86.5735C92.6883 93.2242 96.8722 121.497 95.5849 137.883H61.7923C63.0796 122.14 59.8613 93.5455 55.3556 78.1237ZM71.7691 192.181H11.2643C9.33328 190.896 6.75864 188.004 6.11496 185.755C6.11496 185.434 6.11496 185.112 5.79312 185.112L6.11496 184.791C9.65512 185.434 13.1953 182.863 14.1608 179.329C14.1608 179.008 14.4826 178.044 14.4826 177.723C14.4826 174.189 11.5861 171.297 7.72412 171.297C7.72412 170.976 7.40228 170.654 7.40228 170.654C8.04596 169.369 9.97696 167.763 10.9425 167.12H71.7691C72.7346 167.763 74.0219 169.369 74.3438 170.654L90.1137 172.261L76.2748 173.867C76.5966 174.831 76.9185 176.759 76.9185 178.044L91.7228 179.65L76.9185 181.257C76.9185 182.863 76.5966 185.434 75.9529 187.04L89.1482 188.325L74.3438 189.932C74.0219 190.253 72.7346 191.538 71.7691 192.181ZM123.906 116.036L136.78 93.2242L136.136 102.22H134.527L132.596 119.248C131.308 116.036 127.446 114.429 123.906 116.036ZM93.332 167.442H123.584L124.872 169.691L140.642 170.976L126.481 172.582C126.803 173.867 127.446 176.116 127.446 177.401L142.251 179.329L127.446 180.614C127.768 182.221 127.125 185.112 126.481 186.398L139.032 188.004L125.515 189.289C125.194 190.253 124.228 191.538 123.263 192.181H92.6883C97.8377 185.434 97.8377 174.189 93.332 167.442ZM120.688 94.5094L115.217 138.526L108.458 137.883L114.251 93.5455H115.539L117.47 73.6257L121.332 73.947L119.079 93.8668L120.688 94.5094ZM227.537 75.2321L209.192 51.7781L231.077 73.6257C229.79 72.9831 228.181 73.947 227.537 75.2321ZM193.744 18.043L195.353 16.1153L222.066 45.995L223.675 44.3885L239.445 61.738L235.583 65.2722L193.744 18.043ZM155.446 31.8583L164.779 25.7539L167.354 35.7138L138.389 45.995L157.377 33.4648L155.446 31.8583ZM266.801 86.1559H286.111L291.582 87.1197H272.594L266.801 86.1559ZM250.709 85.192C254.249 98.6861 251.674 120.534 245.238 132.743L238.157 147.522L238.801 147.843L235.583 155.875L236.87 159.088H241.054L247.169 148.486L246.847 148.164L247.491 147.843H249.422L246.203 155.554L247.491 158.767H251.996L257.789 148.486L257.467 148.164V147.522H261.008L257.467 154.911L258.755 158.446H263.26L269.375 147.843H269.053V147.522H271.306L268.41 155.233L269.697 158.767H274.203L279.996 148.486L279.03 144.951C283.214 137.883 289.651 124.068 291.904 116.036C294.8 109.931 297.375 98.3648 297.375 91.6178C298.34 86.7985 296.088 80.3727 291.904 77.1598C289.973 75.8747 286.433 74.2682 284.18 74.2682H265.191L259.398 63.6658L245.56 62.7019L226.893 41.4969L228.824 40.2118L199.859 8.40436L201.146 5.83406C201.468 4.8702 201.468 3.58505 200.825 2.62118C199.859 0.372174 197.284 -0.591688 195.032 0.372174L183.446 8.40436L173.147 6.15535L161.883 16.4365L163.492 22.2197L153.193 28.6455L151.906 26.7177L130.665 40.5331L128.734 36.6776L120.044 39.2479L120.688 52.0994L118.113 52.742L99.7687 100.614C99.125 94.5093 96.5504 83.5856 93.9757 78.1237H99.125L93.6538 68.4851H32.8272L31.218 78.1237H35.08V115.393H6.43677C2.89661 115.393 9.15527e-05 118.285 9.15527e-05 121.819V149.449H37.9765L46.6661 161.98H9.65512C7.40228 163.265 4.18396 166.478 2.89661 169.048C-2.89639 178.687 0.643799 191.217 10.2988 197H135.814C139.354 195.715 143.86 191.859 145.469 188.325C150.297 179.008 146.756 167.442 137.423 162.622H98.1595L105.562 150.092H138.711V143.666V143.345C138.711 141.739 137.745 139.811 136.458 139.168L140.963 103.184H139.676L141.285 85.5133L143.86 81.0153L179.584 58.5252L214.663 89.0475V90.0113L212.411 91.939L225.284 125.674L224.319 131.457L232.043 146.558C237.192 137.883 244.916 120.212 247.812 110.574C250.065 103.505 251.674 91.939 250.709 85.192Z" fill="#E3AD24" fill-opacity="0.8"/>
</svg>
