<svg width="95" height="60" viewBox="0 0 95 60" fill="none" xmlns="http://www.w3.org/2000/svg">
<path d="M66.1418 24.9172V32.9921L76.4664 35.0528V23.1508L66.1418 24.9172Z" fill="#28414C"/>
<path d="M76.4666 35.0528V23.1508L93.5467 20.2489L76.4666 35.0528Z" fill="#112026"/>
<path d="M30.2396 24.9172V32.9921L19.915 35.0528V23.1508L30.2396 24.9172Z" fill="#112026"/>
<path d="M19.9149 35.0528V23.1508L2.83472 20.2489L19.9149 35.0528Z" fill="#28414C"/>
<path d="M70.6456 40.0996L48.2119 59.5297V27.9873L70.6456 24.1602V40.0996Z" fill="#112026"/>
<path d="M25.7781 40.0996L48.2118 59.5297V27.9873L25.7781 24.1602V40.0996Z" fill="#28414C"/>
<path d="M18.9922 9.11674C18.9072 21.1029 0.042488 21.187 0 9.11674C0.042488 -3.03761 18.9072 -3.03761 18.9922 9.11674ZM12.1091 9.03263C12.1091 4.95314 6.7556 4.95314 6.71311 9.03263C6.7556 13.1121 12.1091 13.0701 12.1091 9.03263Z" fill="#E3AD24"/>
<path d="M20.8821 17.8215V0.452087C23.7288 0.452087 25.4708 0.452087 28.36 0.452087C32.7362 0.452087 36.7726 1.92407 36.7726 7.09703C36.7726 12.27 32.6513 13.742 28.36 13.784H27.7651V17.8635C25.4708 17.8215 23.1339 17.8215 20.8821 17.8215ZM28.445 8.61106C29.5921 8.56901 30.102 7.98021 30.102 7.13908C30.102 6.29795 29.5496 5.70916 28.445 5.70916H27.5952V8.65312H28.445V8.61106Z" fill="#E3AD24"/>
<path d="M49.1996 10.9662L44.356 17.8215H38.6626V0.452091H45.4182V3.60633L44.9508 7.26526L49.752 0.410034H55.4454V17.7373H48.6048V14.7093L49.1996 10.9662Z" fill="#E3AD24"/>
<path d="M76.3274 9.11576C76.2849 21.1019 57.4202 21.2281 57.3352 9.11576C57.3352 -3.03859 76.2424 -3.03859 76.3274 9.11576ZM69.4443 9.03165C69.4443 4.95216 64.0908 4.95216 64.0483 9.03165C64.0908 13.1111 69.4443 13.0691 69.4443 9.03165Z" fill="#E3AD24"/>
<path d="M85.0576 0.452087V6.2559H88.2017V0.452087C90.4536 0.452087 92.748 0.452087 94.9998 0.452087V17.7794H88.2017V11.7653H85.0576V17.8215H78.217V0.452087C80.4689 0.452087 82.7208 0.452087 85.0576 0.452087Z" fill="#E3AD24"/>
<path d="M48.1908 19.8432L47.5036 22.9357L44.4111 23.6229L47.5036 24.3101L48.1908 27.4026L48.878 24.3101L51.9705 23.6229L48.878 22.9357L48.1908 19.8432Z" fill="#E3AD24"/>
<path d="M34.9618 17.0085L34.2746 20.1009L31.1821 20.7881L34.2746 21.4754L34.9618 24.5678L35.649 21.4754L38.7415 20.7881L35.649 20.1009L34.9618 17.0085Z" fill="#E3AD24"/>
<path d="M60.4745 17.0085L59.7873 20.1009L56.6948 20.7881L59.7873 21.4754L60.4745 24.5678L61.1617 21.4754L64.2542 20.7881L61.1617 20.1009L60.4745 17.0085Z" fill="#E3AD24"/>
</svg>
