<svg width="99" height="51" viewBox="0 0 99 51" fill="none" xmlns="http://www.w3.org/2000/svg">
<path d="M23.9758 31.9713C20.779 31.9713 18.1816 34.6702 18.1816 37.9919C18.1816 41.3136 20.779 44.0125 23.9758 44.0125C27.1726 44.0125 29.7699 41.3136 29.7699 37.9919C29.7699 34.6702 27.1726 31.9713 23.9758 31.9713ZM23.9758 41.9364C21.8779 41.9364 20.1796 40.1718 20.1796 37.9919C20.1796 35.812 21.8779 34.0473 23.9758 34.0473C26.0737 34.0473 27.772 35.812 27.772 37.9919C27.772 40.1718 26.0737 41.9364 23.9758 41.9364Z" fill="#E3AD24"/>
<path d="M65.4338 31.9713C62.237 31.9713 59.6396 34.6702 59.6396 37.9919C59.6396 41.3136 62.237 44.0125 65.4338 44.0125C68.6306 44.0125 71.2279 41.3136 71.2279 37.9919C71.2279 34.6702 68.5307 31.9713 65.4338 31.9713ZM65.4338 41.9364C63.3359 41.9364 61.6376 40.1718 61.6376 37.9919C61.6376 35.812 63.3359 34.0473 65.4338 34.0473C67.5317 34.0473 69.23 35.812 69.23 37.9919C69.23 40.1718 67.4318 41.9364 65.4338 41.9364Z" fill="#E3AD24"/>
<path d="M98.9001 46.5039C97.7013 46.4001 97.1988 46.2963 96 46.1925L89.11 37.0577L88.3108 35.9159L87.9112 35.1893C87.8113 34.9816 87.7114 34.774 87.4117 34.4626C86.9122 33.9436 86.3128 33.6322 85.6135 33.5284C85.4137 33.5284 85.2139 33.5284 85.114 33.5284H84.7144H84.0151H83.3158H83.116H83.0161C82.7164 33.5284 82.4168 33.8398 82.217 34.1512C82.1171 34.255 82.1171 34.5664 82.1171 34.5664V34.6702V34.8778V35.8121L77.8214 31.6599V23.0442C77.8214 21.3834 76.5227 20.0339 74.9243 20.0339H65.8335L58.6408 13.2867C57.6418 12.3524 56.2432 12.041 55.0444 12.6638C53.7457 13.1829 53.0464 14.4285 53.0464 15.8818V23.667H50.0494V20.2415L48.7508 3.01008C49.0505 3.01008 49.3502 3.01008 49.6498 2.90628V1.14161C48.0515 1.03781 46.4531 0.934004 44.9546 0.934004C43.3562 0.8302 41.7578 0.8302 40.1594 0.8302C38.5611 0.8302 36.9627 0.8302 35.4642 0.934004C33.8658 0.934004 32.2674 1.03781 30.7689 1.14161V3.01008C30.9687 3.01008 31.0686 3.01008 31.2684 3.01008L29.2704 10.8992C17.4823 11.7296 8.99092 14.8437 5.79415 16.0894C4.39556 16.7122 3.49647 18.0616 3.49647 19.6187V26.4697C1.49849 26.6773 0 28.2344 0 30.2067V37.4729C0 39.4452 1.59839 41.1061 3.49647 41.1061H11.9879C13.2866 46.7115 18.1816 50.8636 23.9758 50.8636C29.7699 50.8636 34.5651 46.7115 35.9637 41.1061H49.9495V38.0958H53.0464C53.0464 45.1544 58.5409 50.8636 65.334 50.8636C69.5298 50.8636 73.1261 48.6838 75.4238 45.4658H81.5177V45.5696V46.2963V46.5039V46.6077C81.5177 46.7115 81.5177 46.8153 81.5177 46.9191C81.5177 47.3343 81.7175 47.6457 81.9173 47.9571C82.3168 48.5799 83.116 48.9952 83.7154 48.9952H84.4147C85.4137 48.9952 86.3128 48.9952 87.3118 48.8914C89.2099 48.7876 91.2079 48.7876 93.1059 48.5799C95.004 48.4761 97.002 48.3723 98.9001 48.1647V46.5039ZM74.7245 23.2518V28.8572L68.9304 23.2518H74.7245ZM56.1433 15.4665C56.2432 15.4665 56.443 15.3627 56.5429 15.5703L66.5328 25.2241C66.1332 25.2241 65.7336 25.1203 65.334 25.1203C61.5378 25.1203 58.1413 26.885 55.8436 29.6877V15.8818C55.9435 15.6741 56.0434 15.5703 56.1433 15.4665ZM52.9465 25.7431V28.7534H49.9495V25.7431H52.9465ZM35.4642 3.21769C37.0626 3.21769 38.6609 3.21769 40.1594 3.32149C41.7578 3.32149 43.3562 3.32149 44.8547 3.21769C45.1544 3.21769 45.4541 3.21769 45.7538 3.21769L46.8527 18.6845H39.1604C39.1604 18.0616 39.2603 17.335 39.2603 16.7122C39.2603 15.5703 39.2603 14.3247 39.2603 13.1829L39.1604 9.65352C39.1604 8.51168 39.0605 7.26604 38.6609 6.12419H36.5631C36.2634 7.26604 36.1635 8.51168 36.0636 9.65352L35.9637 13.1829C35.9637 14.3247 35.9637 15.5703 35.9637 16.7122C35.9637 16.9198 35.9637 17.1274 35.9637 17.335L31.9677 12.041L34.2654 3.21769C34.665 3.21769 35.0646 3.21769 35.4642 3.21769ZM2.99697 37.3691V30.1029C2.99697 29.7915 3.19677 29.5839 3.49647 29.5839H14.5853C12.6872 31.7637 11.5883 34.6702 11.5883 37.8882H3.49647C3.19677 37.8882 2.99697 37.6805 2.99697 37.3691ZM23.9758 47.6457C18.8809 47.6457 14.6852 43.2859 14.6852 37.992C14.6852 32.698 18.8809 28.3382 23.9758 28.3382C29.0706 28.3382 33.2664 32.698 33.2664 37.992C33.2664 43.2859 29.0706 47.6457 23.9758 47.6457ZM36.2634 37.8882C36.2634 30.8295 30.7689 25.1203 23.9758 25.1203C21.9778 25.1203 20.1796 25.6393 18.4813 26.4697H6.29364V19.6187C6.29364 19.3073 6.49344 18.9959 6.69324 18.8921C9.79011 17.6464 18.0817 14.6361 29.5701 13.8057L33.1665 18.4768C33.1665 18.4768 15.0717 18.4768 13 18.4768C10.9283 18.4768 10.9283 21.591 13 21.591C15.0717 21.591 46.9526 21.591 46.9526 21.591V37.6805H36.2634V37.8882ZM49.9495 34.8778V30.8295H52.9465V34.8778H49.9495ZM65.4339 47.6457C60.3391 47.6457 56.1433 43.2859 56.1433 37.992C56.1433 32.698 60.3391 28.3382 65.4339 28.3382C70.5288 28.3382 74.7245 32.698 74.7245 37.992C74.7245 43.2859 70.5288 47.6457 65.4339 47.6457ZM76.6226 43.286C77.3219 41.6251 77.7215 39.8604 77.7215 37.992C77.7215 37.2653 77.6216 36.5387 77.5217 35.8121L81.8174 39.9642C81.8174 41.1061 81.7175 42.1441 81.6176 43.286H76.6226ZM87.4117 45.7772C86.4127 45.7772 85.5136 45.6734 84.5146 45.6734V45.4658C84.4147 43.4936 84.3148 41.4175 84.2149 39.4452L84.115 36.4349V35.5007H84.2149H84.9142H85.3138C85.4137 35.5007 85.5136 35.5007 85.5136 35.5007C85.8133 35.5007 86.113 35.7083 86.3128 35.9159C86.4127 36.0197 86.5126 36.2273 86.7124 36.4349L87.2119 37.0577L88.111 38.3034L93.7387 46.1925C93.9385 46.1925 93.5389 46.1925 93.7387 46.1925C91.6409 45.881 89.3098 45.7772 87.4117 45.7772Z" fill="#E3AD24"/>
</svg>
